<svg width="15" height="15" viewBox="0 0 15 15" fill="none" xmlns="http://www.w3.org/2000/svg">
<path d="M7.81053 3.50294C7.08141 3.50288 6.36864 3.71904 5.76237 4.12408C5.1561 4.52912 4.68356 5.10485 4.4045 5.77846C4.12545 6.45207 4.05242 7.1933 4.19465 7.90842C4.33688 8.62354 4.68798 9.28042 5.20355 9.79599C5.71912 10.3116 6.376 10.6627 7.09111 10.8049C7.80623 10.9471 8.54747 10.8741 9.22108 10.595C9.89469 10.316 10.4704 9.84344 10.8755 9.23716C11.2805 8.63089 11.4967 7.91813 11.4966 7.189C11.4974 6.70473 11.4025 6.22506 11.2176 5.77751C11.0326 5.32995 10.7611 4.9233 10.4187 4.58087C10.0762 4.23843 9.66958 3.96695 9.22203 3.78198C8.77447 3.59701 8.29481 3.50218 7.81053 3.50294V3.50294ZM7.81053 9.58595C7.33651 9.58601 6.87312 9.44551 6.47895 9.1822C6.08479 8.91889 5.77755 8.54461 5.59611 8.10669C5.41467 7.66877 5.36716 7.18688 5.4596 6.72196C5.55203 6.25704 5.78027 5.82997 6.11543 5.49476C6.45059 5.15956 6.87763 4.93127 7.34254 4.83877C7.80745 4.74627 8.28934 4.79371 8.72729 4.9751C9.16523 5.15648 9.53955 5.46366 9.80291 5.85779C10.0663 6.25192 10.2068 6.7153 10.2068 7.18932C10.2057 7.82455 9.95293 8.43346 9.50378 8.88266C9.05463 9.33187 8.44576 9.58476 7.81053 9.58595V9.58595ZM12.5072 3.35215C12.5072 3.52222 12.4568 3.68848 12.3623 3.82988C12.2678 3.97129 12.1335 4.0815 11.9764 4.14656C11.8192 4.21163 11.6463 4.22864 11.4795 4.19544C11.3127 4.16224 11.1595 4.08031 11.0393 3.96003C10.919 3.83975 10.8372 3.68651 10.804 3.5197C10.7709 3.35289 10.788 3.17999 10.8531 3.02288C10.9182 2.86578 11.0285 2.73151 11.1699 2.63707C11.3114 2.54263 11.4776 2.49225 11.6477 2.49232C11.7607 2.4921 11.8726 2.5142 11.977 2.55734C12.0813 2.60048 12.1762 2.66381 12.2561 2.7437C12.3359 2.82359 12.3992 2.91847 12.4423 3.02288C12.4854 3.12729 12.5075 3.23919 12.5072 3.35215V3.35215ZM14.9491 4.22482C14.8942 3.07303 14.6315 2.05277 13.7873 1.21219C12.9432 0.371606 11.9265 0.108201 10.7747 0.0507719C9.58763 -0.016924 6.02991 -0.016924 4.84282 0.0507719C3.69392 0.105314 2.67399 0.368076 1.83019 1.20898C0.986401 2.04989 0.726205 3.06982 0.668455 4.22129C0.601401 5.40837 0.601401 8.96642 0.668455 10.1535C0.722996 11.3053 0.98608 12.3259 1.83019 13.1661C2.67431 14.0064 3.69103 14.2698 4.84282 14.3276C6.02991 14.3952 9.58763 14.3952 10.7747 14.3276C11.9265 14.273 12.9471 14.0102 13.7873 13.1661C14.6276 12.322 14.891 11.3053 14.9491 10.1535C15.0165 8.96642 15.0165 5.41158 14.9491 4.2245V4.22482ZM13.4152 11.4275C13.2932 11.7368 13.1089 12.0178 12.8738 12.2529C12.6387 12.488 12.3577 12.6723 12.0484 12.7943C11.102 13.1697 8.85613 13.083 7.81021 13.083C6.76429 13.083 4.51525 13.1665 3.572 12.7943C3.2627 12.6723 2.98177 12.488 2.74666 12.2529C2.51155 12.0178 2.32726 11.7368 2.20525 11.4275C1.82987 10.4811 1.9165 8.23524 1.9165 7.189C1.9165 6.14276 1.83308 3.89404 2.20525 2.95079C2.32726 2.64149 2.51155 2.36056 2.74666 2.12545C2.98177 1.89033 3.2627 1.70605 3.572 1.58404C4.51846 1.20866 6.76429 1.29529 7.81021 1.29529C8.85613 1.29529 11.1052 1.21187 12.0484 1.58404C12.3578 1.70616 12.6388 1.89059 12.8739 2.12587C13.109 2.36116 13.2933 2.64227 13.4152 2.95175C13.7906 3.89821 13.7039 6.14405 13.7039 7.18996C13.7039 8.23588 13.7906 10.484 13.4152 11.4275V11.4275Z" fill="white"/>
</svg>
