<svg width="17" height="14" viewBox="0 0 17 14" fill="none" xmlns="http://www.w3.org/2000/svg">
<path d="M14.8175 3.90874C14.8282 4.05188 14.8282 4.19502 14.8282 4.33816C14.8282 8.70218 11.4222 13.7306 5.19776 13.7306C3.35496 13.7353 1.55001 13.2207 0 12.2486C0.271431 12.2774 0.54435 12.2907 0.817371 12.2885C2.34062 12.2925 3.82086 11.7961 5.01938 10.8792C4.31312 10.8666 3.62852 10.6392 3.06117 10.2288C2.49382 9.81836 2.07204 9.24539 1.85473 8.58987C2.06623 8.62241 2.27994 8.63944 2.49405 8.64084C2.79457 8.63997 3.09378 8.60224 3.38464 8.52853C2.61826 8.37702 1.92924 7.97153 1.43453 7.3809C0.939826 6.79027 0.669914 6.05088 0.670606 5.28823V5.24733C1.13961 5.50261 1.66382 5.64619 2.20052 5.66637C1.48213 5.19915 0.973679 4.48212 0.778973 3.66168C0.584267 2.84123 0.717988 1.97924 1.15284 1.2517C2.00293 2.27241 3.06351 3.10745 4.26579 3.70268C5.46807 4.29791 6.78521 4.64004 8.13178 4.70686C8.07757 4.45863 8.04947 4.20564 8.04791 3.95184C8.04763 3.28934 8.2516 2.64206 8.63335 2.09407C9.0151 1.54608 9.55699 1.12271 10.1886 0.878947C10.8203 0.635182 11.5124 0.582287 12.1753 0.727132C12.8382 0.871978 13.441 1.20787 13.9056 1.69118C14.6637 1.54882 15.3906 1.27909 16.0539 0.894006C15.8016 1.65685 15.2725 2.30366 14.5659 2.71298C15.2382 2.63845 15.8952 2.46624 16.5152 2.20208C16.0518 2.86011 15.4779 3.43711 14.8175 3.90874V3.90874Z" fill="white"/>
</svg>
