<svg width="12" height="10" viewBox="0 0 12 10" fill="none" xmlns="http://www.w3.org/2000/svg">
<path d="M10.1741 0.844569C10.1708 0.837501 10.1653 0.831962 10.1585 0.828944C9.38052 0.438511 8.55947 0.160101 7.71596 0.000682896C7.7083 -0.000875387 7.70038 0.000248777 7.69334 0.00389551C7.68629 0.00754224 7.68048 0.0135259 7.67672 0.0209955C7.56492 0.242936 7.46343 0.470905 7.37264 0.704033C6.46338 0.553069 5.5385 0.553069 4.62924 0.704033C4.53784 0.470313 4.43473 0.242287 4.32036 0.0209955C4.31644 0.0136882 4.31059 0.00784238 4.30359 0.00421934C4.29659 0.000596291 4.28875 -0.000636043 4.28109 0.000682896C3.43749 0.159767 2.6164 0.438197 1.83847 0.828967C1.83181 0.832054 1.82619 0.837327 1.82239 0.844056C0.266692 3.38509 -0.159473 5.86365 0.0495892 8.31151C0.0501773 8.31751 0.0518625 8.32332 0.0545446 8.32859C0.0572266 8.33386 0.0608508 8.33849 0.0652015 8.3422C0.971071 9.07581 1.9843 9.63578 3.06164 9.99821C3.06923 10.0007 3.07733 10.0006 3.08486 9.99789C3.09238 9.99519 3.09897 9.99004 3.10374 9.98312C3.33513 9.63876 3.54016 9.27412 3.71674 8.8929C3.71917 8.88766 3.72056 8.88193 3.72081 8.87607C3.72106 8.87021 3.72018 8.86436 3.71821 8.8589C3.71625 8.85344 3.71325 8.8485 3.70941 8.84441C3.70557 8.84031 3.70098 8.83715 3.69595 8.83513C3.37263 8.69982 3.05963 8.53671 2.75986 8.34734C2.75442 8.34383 2.74985 8.33892 2.74655 8.33303C2.74325 8.32714 2.74133 8.32045 2.74096 8.31355C2.74058 8.30665 2.74177 8.29976 2.74441 8.29348C2.74705 8.28721 2.75106 8.28174 2.75609 8.27756C2.81899 8.22602 2.88193 8.1724 2.94199 8.11825C2.94732 8.11344 2.95378 8.11036 2.96063 8.10935C2.96748 8.10834 2.97445 8.10945 2.98076 8.11254C4.94463 9.09283 7.07078 9.09283 9.0114 8.11254C9.01772 8.10925 9.02477 8.10799 9.03172 8.10891C9.03867 8.10983 9.04524 8.11289 9.05066 8.11774C9.11074 8.17189 9.17366 8.22602 9.23703 8.27756C9.24209 8.2817 9.24613 8.28713 9.24881 8.29338C9.25149 8.29964 9.25273 8.30652 9.2524 8.31341C9.25207 8.32031 9.2502 8.32701 9.24694 8.33293C9.24368 8.33885 9.23914 8.34379 9.23372 8.34734C8.93464 8.53831 8.62135 8.70131 8.29719 8.83461C8.29216 8.83671 8.28758 8.83994 8.28377 8.8441C8.27996 8.84827 8.27699 8.85326 8.27506 8.85876C8.27314 8.86426 8.27229 8.87015 8.27259 8.87603C8.27289 8.88191 8.27431 8.88766 8.27678 8.8929C8.45632 9.272 8.66105 9.63618 8.88931 9.98252C8.89395 9.98962 8.90051 9.99496 8.90806 9.99776C8.91562 10.0006 8.92379 10.0007 8.93142 9.99814C10.0107 9.63694 11.0257 9.07692 11.9327 8.3422C11.9371 8.33868 11.9408 8.33416 11.9435 8.32896C11.9462 8.32375 11.9478 8.31798 11.9483 8.31202C12.1986 5.48204 11.5293 3.02379 10.1741 0.844569ZM4.01003 6.82101C3.41876 6.82101 2.93158 6.22755 2.93158 5.49871C2.93158 4.76987 3.40932 4.17636 4.01003 4.17636C4.61544 4.17636 5.09791 4.77503 5.08846 5.49867C5.08846 6.22755 4.61071 6.82101 4.01003 6.82101ZM7.99739 6.82101C7.40615 6.82101 6.91896 6.22755 6.91896 5.49871C6.91896 4.76987 7.3967 4.17636 7.99739 4.17636C8.60284 4.17636 9.08529 4.77503 9.07585 5.49867C9.07585 6.22755 8.60284 6.82101 7.99739 6.82101Z" fill="white"/>
</svg>
